<svg id="Calque_1" data-name="Calque 1" xmlns="http://www.w3.org/2000/svg" xmlns:xlink="http://www.w3.org/1999/xlink" viewBox="0 0 380 380">
  <defs>
    <linearGradient id="gradient" data-name="Dégradé sans nom 16" x1="190" y1="375" x2="190" y2="5" gradientUnits="userSpaceOnUse">
      <stop offset="0.51" stop-color="#ee7658"/>
      <stop offset="1" stop-color="#f4a085"/>
    </linearGradient>
  </defs>
  <rect x="5" y="5" width="370" height="370" rx="23.25" style="fill: url(#gradient)"/>
  <path d="M142.5,375l32.88-48.32h0l7.33-1.39a81.15,81.15,0,0,0,68.15-50.93l29.95-72.14,18.72-6.4c29.36-10.33,46.12-42,37.63-71.71-5.32-18-17.62-32.72-35.85-38.74s-36.9-4.38-52.74,7.18L240.11,98l-10.47-15.1c-4-5.89-12-8.16-17.88-4.19s-8.16,12-4.2,17.88l9.73,16.19-12.53,9-8.28-13.62c-4-5.89-12-8.16-17.88-4.19s-8.16,12-4.2,17.88l9.38,14.36-12.53,9-7.93-11.78c-4-5.89-12-8.16-17.88-4.19s-8.17,12-4.2,17.88L148.43,160l-12.52,9-5.75-10.3c-4-5.89-12-8.16-17.89-4.19s-8.16,12-4.19,17.88L116,184.19c-23.6,20.63-32.69,52.73-24.93,83.53h0c1.78,4.41,2.48,8.07,4.27,12.48L27.89,375H58.26l53-71.24c3.62,4.06,6.89,6.28,11.25,9.25a82.88,82.88,0,0,0,22.94,10.83L110.11,375Z" style="fill: #fff"/>
</svg>
